<?xml version="1.0" encoding="UTF-8" standalone="no"?>
<!-- Created with Inkscape (http://www.inkscape.org/) -->

<svg
   width="100mm"
   height="100mm"
   viewBox="0 0 100 100"
   version="1.1"
   id="svg5"
   inkscape:version="1.2.2 (b0a8486541, 2022-12-01)"
   sodipodi:docname="icon.svg"
   xmlns:inkscape="http://www.inkscape.org/namespaces/inkscape"
   xmlns:sodipodi="http://sodipodi.sourceforge.net/DTD/sodipodi-0.dtd"
   xmlns="http://www.w3.org/2000/svg"
   xmlns:svg="http://www.w3.org/2000/svg">
  <sodipodi:namedview
     id="namedview7"
     pagecolor="#ffffff"
     bordercolor="#000000"
     borderopacity="0.25"
     inkscape:showpageshadow="2"
     inkscape:pageopacity="0.0"
     inkscape:pagecheckerboard="0"
     inkscape:deskcolor="#d1d1d1"
     inkscape:document-units="mm"
     showgrid="false"
     inkscape:zoom="1.4948513"
     inkscape:cx="79.272099"
     inkscape:cy="192.6613"
     inkscape:window-width="1920"
     inkscape:window-height="1011"
     inkscape:window-x="0"
     inkscape:window-y="32"
     inkscape:window-maximized="1"
     inkscape:current-layer="path288" />
  <defs
     id="defs2" />
  <g
     inkscape:label="Ebene 1"
     inkscape:groupmode="layer"
     id="layer1">
    <g
       id="path288">
      <g
         id="g5140"
         style="stroke-width:1.87325;stroke-dasharray:none">
        <g
           id="path5198"
           style="stroke-width:1.87325;stroke-dasharray:none">
          <path
             style="color:#000000;fill:#8eef97;fill-rule:evenodd;stroke-width:1.87325;stroke-dasharray:none"
             d="m 88.215908,59.182674 c -5.006958,0 -9.070575,-4.063617 -9.070575,-9.070575 0,-5.006958 4.063617,-9.070575 9.070575,-9.070575 5.006958,0 9.070575,4.172464 9.070575,9.070575 0,5.006958 -4.063617,9.070575 -9.070575,9.070575 z"
             id="path5202" />
          <path
             style="color:#000000;fill:#8eef97;fill-rule:evenodd;stroke-width:1.87325;stroke-dasharray:none"
             d="m 88.216797,39.832031 c -5.661321,0 -10.28125,4.617976 -10.28125,10.279297 0,5.661321 4.619929,10.28125 10.28125,10.28125 5.661321,0 10.279297,-4.619929 10.279297,-10.28125 0,-5.567015 -4.600449,-10.279297 -10.279297,-10.279297 z m 0,2.417969 c 4.335057,0 7.859375,3.632131 7.859375,7.861328 0,4.352585 -3.50679,7.861328 -7.859375,7.861328 -4.352585,0 -7.861328,-3.508743 -7.861328,-7.861328 0,-4.352585 3.508743,-7.861328 7.861328,-7.861328 z"
             id="path5204" />
        </g>
        <g
           id="path5190"
           style="stroke-width:1.87325;stroke-dasharray:none">
          <path
             style="color:#000000;fill:#8eef97;fill-rule:evenodd;stroke-width:1.87325;stroke-dasharray:none"
             d="m 83.526453,29.720177 c -3.540454,3.540454 -9.287277,3.540454 -12.82773,0 -3.540454,-3.540454 -3.540454,-9.287277 0,-12.82773 3.540454,-3.540454 9.364243,-3.463487 12.82773,0 3.540454,3.540454 3.540454,9.287277 0,12.82773 z"
             id="path5194" />
          <path
             style="color:#000000;fill:#8eef97;fill-rule:evenodd;stroke-width:1.87325;stroke-dasharray:none"
             d="m 77.142578,13.054688 c -2.640518,-0.0099 -5.291052,0.974645 -7.298828,2.982421 -4.003159,4.003158 -4.003158,10.535904 0,14.539063 4.003157,4.003158 10.533951,4.003158 14.537109,0 4.003159,-4.003158 4.003159,-10.535904 0,-14.539063 -1.968237,-1.968237 -4.597763,-2.972537 -7.238281,-2.982421 z m -0.002,2.421875 c 2.022357,0.0094 4.036003,0.776237 5.53125,2.271484 3.077743,3.077742 3.077742,8.039446 0,11.117187 -3.077743,3.077743 -8.039446,3.077743 -11.117188,0 -3.077742,-3.077742 -3.077742,-8.039446 0,-11.117187 1.532675,-1.532674 3.563581,-2.280841 5.585938,-2.271484 z"
             id="path5196" />
        </g>
        <g
           id="path5182"
           style="stroke-width:1.87325;stroke-dasharray:none">
          <path
             style="color:#000000;fill:#8eef97;fill-rule:evenodd;stroke-width:1.87325;stroke-dasharray:none"
             d="m 59.377376,12.202991 c 0,5.006958 -4.063617,9.070575 -9.070575,9.070575 -5.006958,0 -9.070575,-4.063617 -9.070575,-9.070575 0,-5.0069575 4.172464,-9.0705752 9.070575,-9.0705752 5.006958,0 9.070575,4.0636177 9.070575,9.0705752 z"
             id="path5186" />
          <path
             style="color:#000000;fill:#8eef97;fill-rule:evenodd;stroke-width:1.87325;stroke-dasharray:none"
             d="m 50.306641,1.9238281 c -5.567016,0 -10.279297,4.6004488 -10.279297,10.2792969 0,5.661321 4.617976,10.279297 10.279297,10.279297 5.66132,0 10.279296,-4.617976 10.279296,-10.279297 0,-5.6613203 -4.617975,-10.2792969 -10.279296,-10.2792969 z m 0,2.4179688 c 4.352585,0 7.861328,3.5087435 7.861328,7.8613281 0,4.352585 -3.508743,7.861328 -7.861328,7.861328 -4.352586,0 -7.861329,-3.508743 -7.861329,-7.861328 0,-4.3350569 3.632132,-7.8613281 7.861329,-7.8613281 z"
             id="path5188" />
        </g>
        <g
           id="path5174"
           style="stroke-width:1.87325;stroke-dasharray:none">
          <path
             style="color:#000000;fill:#8eef97;fill-rule:evenodd;stroke-width:1.87325;stroke-dasharray:none"
             d="m 29.914879,16.892447 c 3.540454,3.540453 3.540454,9.287276 0,12.82773 -3.540453,3.540454 -9.287276,3.540454 -12.82773,0 -3.540454,-3.540453 -3.463488,-9.364243 0,-12.82773 3.540453,-3.540454 9.287276,-3.540454 12.82773,0 z"
             id="path5178" />
          <path
             style="color:#000000;fill:#8eef97;fill-rule:evenodd;stroke-width:1.87325;stroke-dasharray:none"
             d="m 23.501953,13.035156 c -2.633731,0 -5.267952,1.000374 -7.269531,3.001953 -3.936475,3.936474 -4.015553,10.523511 0,14.539063 4.003158,4.003158 10.533952,4.003158 14.537109,0 4.003159,-4.003159 4.003159,-10.535905 0,-14.539063 -2.001579,-2.001579 -4.633846,-3.001953 -7.267578,-3.001953 z m 0,2.404297 c 2.009902,0 4.019723,0.769723 5.558594,2.308594 3.077742,3.077741 3.077742,8.039445 0,11.117187 -3.077742,3.077743 -8.041398,3.077743 -11.119141,0 -3.065348,-3.065347 -2.990494,-8.126694 0,-11.117187 1.538871,-1.538871 3.550645,-2.308594 5.560547,-2.308594 z"
             id="path5180" />
        </g>
        <g
           id="path5166"
           style="stroke-width:1.87325;stroke-dasharray:none">
          <path
             style="color:#000000;fill:#8eef97;fill-rule:evenodd;stroke-width:1.87325;stroke-dasharray:none"
             d="m 12.397694,41.041524 c 5.006958,0 9.070575,4.063617 9.070575,9.070575 0,5.006958 -4.063617,9.070575 -9.070575,9.070575 -5.0069575,0 -9.0705752,-4.172464 -9.0705752,-9.070575 0,-5.006958 4.0636177,-9.070575 9.0705752,-9.070575 z"
             id="path5170" />
          <path
             style="color:#000000;fill:#8eef97;fill-rule:evenodd;stroke-width:1.87325;stroke-dasharray:none"
             d="m 12.398438,39.832031 c -5.6613208,0 -10.2812505,4.617976 -10.2812505,10.279297 0,5.567016 4.6024019,10.28125 10.2812505,10.28125 5.66132,0 10.279296,-4.619929 10.279296,-10.28125 0,-5.661321 -4.617976,-10.279297 -10.279296,-10.279297 z m 0,2.417969 c 4.352585,0 7.861328,3.508743 7.861328,7.861328 0,4.352585 -3.508743,7.861328 -7.861328,7.861328 -4.3350574,0 -7.8613286,-3.632131 -7.8613286,-7.861328 0,-4.352585 3.5087435,-7.861328 7.8613286,-7.861328 z"
             id="path5172" />
        </g>
        <g
           id="path5158"
           style="stroke-width:1.87325;stroke-dasharray:none">
          <path
             style="color:#000000;fill:#8eef97;fill-rule:evenodd;stroke-width:1.87325;stroke-dasharray:none"
             d="m 17.087149,70.504021 c 3.540453,-3.540454 9.287277,-3.540454 12.82773,0 3.540454,3.540453 3.540454,9.287277 0,12.82773 -3.540453,3.540454 -9.364243,3.463487 -12.82773,0 -3.540454,-3.540453 -3.540454,-9.287277 0,-12.82773 z"
             id="path5162" />
          <path
             style="color:#000000;fill:#8eef97;fill-rule:evenodd;stroke-width:1.87325;stroke-dasharray:none"
             d="m 23.501953,66.646484 c -2.633732,0 -5.267952,1.000374 -7.269531,3.001953 -4.003159,4.003158 -4.003159,10.535905 0,14.539063 3.936474,3.936474 10.521558,4.015553 14.537109,0 4.003159,-4.003158 4.003159,-10.535905 0,-14.539063 -2.001579,-2.001579 -4.633846,-3.001953 -7.267578,-3.001953 z m 0,2.404297 c 2.009902,0 4.019723,0.769723 5.558594,2.308594 3.077742,3.077741 3.077742,8.039446 0,11.117187 -3.065348,3.065349 -8.128648,2.990494 -11.119141,0 -3.077742,-3.077741 -3.077742,-8.039446 0,-11.117187 1.538871,-1.538871 3.550645,-2.308594 5.560547,-2.308594 z"
             id="path5164" />
        </g>
        <g
           id="path5150"
           style="stroke-width:1.87325;stroke-dasharray:none">
          <path
             style="color:#000000;fill:#8eef97;fill-rule:evenodd;stroke-width:1.87325;stroke-dasharray:none"
             d="m 41.236226,88.021206 c 0,-5.006958 4.063617,-9.070575 9.070575,-9.070575 5.006958,0 9.070575,4.063617 9.070575,9.070575 0,5.006958 -4.172464,9.070575 -9.070575,9.070575 -5.006958,0 -9.070575,-4.063617 -9.070575,-9.070575 z"
             id="path5154" />
          <path
             style="color:#000000;fill:#8eef97;fill-rule:evenodd;stroke-width:1.87325;stroke-dasharray:none"
             d="m 50.306641,77.742187 c -5.661321,0 -10.279297,4.617977 -10.279297,10.279297 0,5.661321 4.617976,10.279297 10.279297,10.279297 5.567015,0 10.279296,-4.600448 10.279296,-10.279297 0,-5.66132 -4.617976,-10.279297 -10.279296,-10.279297 z m 0,2.417969 c 4.352585,0 7.861328,3.508743 7.861328,7.861328 0,4.335058 -3.632132,7.861328 -7.861328,7.861328 -4.352586,0 -7.861329,-3.508742 -7.861329,-7.861328 0,-4.352585 3.508743,-7.861328 7.861329,-7.861328 z"
             id="path5156" />
        </g>
        <g
           id="path5142"
           style="stroke-width:1.87325;stroke-dasharray:none">
          <path
             style="color:#000000;fill:#8eef97;fill-rule:evenodd;stroke-width:1.87325;stroke-dasharray:none"
             d="m 70.698723,83.331751 c -3.540454,-3.540453 -3.540454,-9.287277 0,-12.82773 3.540453,-3.540454 9.287277,-3.540454 12.82773,0 3.540454,3.540453 3.463487,9.364243 0,12.82773 -3.540453,3.540454 -9.287277,3.540454 -12.82773,0 z"
             id="path5146" />
          <path
             style="color:#000000;fill:#8eef97;fill-rule:evenodd;stroke-width:1.87325;stroke-dasharray:none"
             d="m 77.113281,66.646484 c -2.633731,0 -5.267952,1.000374 -7.269531,3.001953 -4.003159,4.003158 -4.003159,10.535905 0,14.539063 4.003158,4.003159 10.533952,4.003159 14.537109,0 3.936474,-3.936474 4.015553,-10.523511 0,-14.539063 -2.001578,-2.001579 -4.633846,-3.001953 -7.267578,-3.001953 z m 0,2.404297 c 2.009902,0 4.019723,0.769723 5.558594,2.308594 3.065348,3.065347 2.990493,8.126694 0,11.117187 -3.077741,3.077743 -8.039446,3.077743 -11.117188,0 -3.077742,-3.077741 -3.077742,-8.039446 0,-11.117187 1.538871,-1.538871 3.548692,-2.308594 5.558594,-2.308594 z"
             id="path5148" />
        </g>
      </g>
    </g>
  </g>
</svg>
